<svg xmlns="http://www.w3.org/2000/svg" width="723.96" height="946.957" viewBox="0 0 723.96 946.957">
  <g id="Group_11248" data-name="Group 11248" transform="translate(0.551 0.601)">
    <g id="Group_11102" data-name="Group 11102" transform="translate(0 0)">
      <g id="Group_11101" data-name="Group 11101" transform="translate(0)">
        <path id="Path_13266" data-name="Path 13266" d="M278.37,818.879a102.614,102.614,0,0,0,15.7,17.163c-5.431-20.318,7.183-59.228,6.865-53.263-1.5,28.524,7.129,62.651,13.142,65.9.044.01.061.039.105.05,16.6,7.075,33.56,6.818,48.693,3.192a.172.172,0,0,0-.021-.1c-7.784-23.44,3.99-63.3,4.208-60.609,2.443,28.842,18.357,49.755,21.86,50.7l.022.006c16.433-8.756,26.767-19.2,25.269-20.968-10.875-12.9-15.706-39.66-19.043-67.444l.005-.022c-3.315-27.4-5.181-55.742-9.965-72.745.027-.017.005-.022.01-.044a.4.4,0,0,0-.06-.134c-.136-.485-.278-.947-.42-1.408-10.225-33.246-37.458-34.7-55.724-30.5C266.962,662.9,271.881,810.032,278.37,818.879Z" transform="translate(60.808 -646.969)" fill="#192337" stroke="#1a2337" stroke-linecap="round" stroke-linejoin="round" stroke-width="1.104"/>
        <g id="Group_11099" data-name="Group 11099" transform="translate(0 11.769)">
          <g id="Group_11084" data-name="Group 11084" transform="translate(0 258.732)">
            <g id="Group_11076" data-name="Group 11076" transform="translate(383.995 499.94)">
              <path id="Path_13267" data-name="Path 13267" d="M387.334,1413.568c-6.1,2.022-180.526,1.516-187.168-2.706-2.525-1.588-3.934-27-4.763-57.746-.181-6.641-.325-13.5-.433-20.463-.758-45.222-.506-93.222-.506-93.222H311.147l-2.707,93.222-.577,20.463s66.7,30.064,73.481,35.478C388.093,1394.008,393.435,1411.548,387.334,1413.568Z" transform="translate(-194.424 -1239.431)" fill="#ffe35b" stroke="#1a2337" stroke-linecap="round" stroke-linejoin="round" stroke-width="1.104"/>
              <path id="Path_13268" data-name="Path 13268" d="M386.788,1392.033c-6.1,2.022-180.527,1.516-187.168-2.706-3.068-1.95-4.511-39.05-5.2-78.209h113.47l-.577,20.463s66.7,30.064,73.481,35.478C387.546,1372.472,392.889,1390.012,386.788,1392.033Z" transform="translate(-193.878 -1217.896)" fill="#fff" stroke="#1a2337" stroke-linecap="round" stroke-linejoin="round" stroke-width="1.104"/>
              <g id="Group_11075" data-name="Group 11075" transform="translate(0.979 83.365)">
                <path id="Path_13269" data-name="Path 13269" d="M386.355,1387.306c-6.1,2.022-180.526,1.516-187.168-2.706-2.525-1.588-3.934-27-4.763-57.746H306.883s66.7,30.064,73.481,35.478C387.113,1367.745,392.455,1385.285,386.355,1387.306Z" transform="translate(-194.424 -1296.534)" fill="#f06c5e" stroke="#1a2337" stroke-linecap="round" stroke-linejoin="round" stroke-width="1.104"/>
                <g id="Group_11074" data-name="Group 11074" transform="translate(13.075)">
                  <g id="Group_11073" data-name="Group 11073" transform="translate(0 33.255)">
                    <path id="Path_13270" data-name="Path 13270" d="M374.407,1368.147c-29.237-.8-147.236-1.279-176.2.148-.235.012-.235.172,0,.183,28.961,1.429,146.962.951,176.2.148C375.024,1368.61,375.025,1368.164,374.407,1368.147Z" transform="translate(-198.032 -1317.615)" fill="#b9babb" stroke="#1a2337" stroke-linecap="round" stroke-linejoin="round" stroke-width="1.104"/>
                    <path id="Path_13271" data-name="Path 13271" d="M233.665,1349.29a23.486,23.486,0,0,0-17.513,7.089c-3.645,3.958-6.769,9.529-6.58,15.593.005.173.326.179.354,0,1.7-11.437,12.139-21.458,23.739-22.316A.183.183,0,0,0,233.665,1349.29Z" transform="translate(-72 -1323.054)" fill="#b9babb" stroke="#1a2337" stroke-linecap="round" stroke-linejoin="round" stroke-width="1.104"/>
                    <path id="Path_13272" data-name="Path 13272" d="M280.984,1329.117c-11.7-.2-25.284,3.895-32.583,13.445-.283.371.247.767.594.589a161.785,161.785,0,0,1,32.185-12.593A.736.736,0,0,0,280.984,1329.117Z" transform="translate(-170.267 -1329.111)" fill="#b9babb" stroke="#1a2337" stroke-linecap="round" stroke-linejoin="round" stroke-width="1.104"/>
                    <path id="Path_13273" data-name="Path 13273" d="M274.044,1331.845c-11.7-.2-25.283,3.9-32.583,13.446-.282.37.247.766.6.588a161.705,161.705,0,0,1,32.185-12.592A.737.737,0,0,0,274.044,1331.845Z" transform="translate(-154.302 -1328.291)" fill="#b9babb" stroke="#1a2337" stroke-linecap="round" stroke-linejoin="round" stroke-width="1.104"/>
                    <path id="Path_13274" data-name="Path 13274" d="M267.1,1334.574c-11.7-.2-25.284,3.895-32.583,13.445-.284.371.247.767.6.589a161.791,161.791,0,0,1,32.185-12.593A.736.736,0,0,0,267.1,1334.574Z" transform="translate(-138.339 -1327.471)" fill="#b9babb" stroke="#1a2337" stroke-linecap="round" stroke-linejoin="round" stroke-width="1.104"/>
                    <path id="Path_13275" data-name="Path 13275" d="M260.165,1337.3c-11.7-.2-25.284,3.894-32.583,13.445-.284.371.246.766.594.588a161.828,161.828,0,0,1,32.185-12.592A.735.735,0,0,0,260.165,1337.3Z" transform="translate(-122.374 -1326.652)" fill="#b9babb" stroke="#1a2337" stroke-linecap="round" stroke-linejoin="round" stroke-width="1.104"/>
                  </g>
                  <path id="Path_13276" data-name="Path 13276" d="M263.465,1322.758c-6.339,8.131-15.977,13.232-24.325,18.972a1.427,1.427,0,0,1-2.1-.95.307.307,0,0,1-.364-.335,61.4,61.4,0,0,1,10.721-29.9c3.667-5.09,11.145-9.869,17.054-4.94C270.037,1310.27,267.165,1318.011,263.465,1322.758Zm.57-9.693c-1.128-12.737-12.643-2.989-15.2.871a65.831,65.831,0,0,0-4.3,7.882c-2.693,5.61-4.538,11.5-6.645,17.321,3.929-3.07,8.085-5.778,12.122-8.7C254.83,1326.956,264.657,1320.087,264.034,1313.065Z" transform="translate(-140.993 -1303.538)" fill="#b9babb" stroke="#1a2337" stroke-linecap="round" stroke-linejoin="round" stroke-width="1.104"/>
                  <path id="Path_13277" data-name="Path 13277" d="M258.443,1328.03c.939-7.637,9.662-9.266,15.819-8.061a61.4,61.4,0,0,1,28.27,14.475.307.307,0,0,1-.036.494,1.428,1.428,0,0,1-.883,2.131c-10.016,1.524-20.535,4.394-30.721,2.8C264.946,1338.938,257.555,1335.255,258.443,1328.03Zm27.513,8.245c4.944-.631,9.827-1.5,14.793-1.947-5.521-2.808-10.893-5.84-16.7-8.09a66.078,66.078,0,0,0-8.525-2.81c-4.5-1.068-19.571-.3-11.682,9.76C268.195,1338.735,280.061,1337.023,285.956,1336.275Z" transform="translate(-204.301 -1298.71)" fill="#b9babb" stroke="#1a2337" stroke-linecap="round" stroke-linejoin="round" stroke-width="1.104"/>
                </g>
              </g>
            </g>
            <g id="Group_11080" data-name="Group 11080" transform="translate(0 361.419)">
              <path id="Path_13278" data-name="Path 13278" d="M591.668,1391.393c-5.233-3.73-107.825-144.8-108.338-152.65-.211-2.977,19.463-19.116,43.788-37.943,5.254-4.068,10.7-8.233,16.259-12.433,36.048-27.317,74.936-55.457,74.936-55.457l68.9,94.166-76.832,52.864-16.856,11.618s15.122,71.578,14.761,80.252C607.9,1380.453,596.9,1395.121,591.668,1391.393Z" transform="translate(-483.328 -1132.91)" fill="#ffe35b" stroke="#1a2337" stroke-linecap="round" stroke-linejoin="round" stroke-width="1.104"/>
              <path id="Path_13279" data-name="Path 13279" d="M650.75,1378.582c-5.233-3.729-107.824-144.8-108.338-152.649-.239-3.626,28.85-26.7,60.048-50.376l67,91.573-16.856,11.618s15.122,71.578,14.761,80.251C666.985,1367.641,655.983,1382.31,650.75,1378.582Z" transform="translate(-542.41 -1120.099)" fill="#fff" stroke="#1a2337" stroke-linecap="round" stroke-linejoin="round" stroke-width="1.104"/>
              <g id="Group_11079" data-name="Group 11079" transform="translate(0 67.89)">
                <path id="Path_13280" data-name="Path 13280" d="M652.357,1375.71c-5.233-3.729-107.825-144.8-108.338-152.649-.211-2.977,19.463-19.116,43.789-37.943l66.408,90.758s15.122,71.578,14.761,80.252C668.591,1364.769,657.59,1379.438,652.357,1375.71Z" transform="translate(-544.017 -1185.117)" fill="#f06c5e" stroke="#1a2337" stroke-linecap="round" stroke-linejoin="round" stroke-width="1.104"/>
                <g id="Group_11078" data-name="Group 11078" transform="translate(8.145 42.256)">
                  <g id="Group_11077" data-name="Group 11077" transform="translate(0)">
                    <path id="Path_13281" data-name="Path 13281" d="M657.851,1359.821c-16.617-24.069-85.91-119.58-104.165-142.111-.15-.183-.278-.088-.148.108,15.948,24.217,86.014,119.164,103.927,142.286C657.842,1360.59,658.2,1360.329,657.851,1359.821Z" transform="translate(-553.484 -1217.611)" fill="#b9babb" stroke="#1a2337" stroke-linecap="round" stroke-linejoin="round" stroke-width="1.104"/>
                    <path id="Path_13282" data-name="Path 13282" d="M577.747,1309.146a23.488,23.488,0,0,0-16.062-9.947c-5.345-.6-11.686.166-16.469,3.9-.138.106.048.369.208.285,10.235-5.378,24.485-2.873,32.028,5.982A.183.183,0,0,0,577.747,1309.146Z" transform="translate(-462.458 -1193.157)" fill="#b9babb" stroke="#1a2337" stroke-linecap="round" stroke-linejoin="round" stroke-width="1.104"/>
                    <path id="Path_13283" data-name="Path 13283" d="M582.405,1267.518c-6.752-9.561-18.073-18.1-30.091-18.356-.465-.009-.473.653-.124.828a161.729,161.729,0,0,1,29.168,18.539A.736.736,0,0,0,582.405,1267.518Z" transform="translate(-476.033 -1208.133)" fill="#b9babb" stroke="#1a2337" stroke-linecap="round" stroke-linejoin="round" stroke-width="1.104"/>
                    <path id="Path_13284" data-name="Path 13284" d="M580.509,1274.729c-6.752-9.561-18.073-18.1-30.091-18.355-.466-.011-.473.651-.123.827a161.786,161.786,0,0,1,29.168,18.539A.736.736,0,0,0,580.509,1274.729Z" transform="translate(-471.671 -1205.967)" fill="#b9babb" stroke="#1a2337" stroke-linecap="round" stroke-linejoin="round" stroke-width="1.104"/>
                    <path id="Path_13285" data-name="Path 13285" d="M578.613,1281.941c-6.753-9.561-18.073-18.1-30.092-18.356-.465-.009-.473.653-.123.828a161.75,161.75,0,0,1,29.168,18.538A.736.736,0,0,0,578.613,1281.941Z" transform="translate(-467.31 -1203.801)" fill="#b9babb" stroke="#1a2337" stroke-linecap="round" stroke-linejoin="round" stroke-width="1.104"/>
                    <path id="Path_13286" data-name="Path 13286" d="M576.718,1289.153c-6.753-9.561-18.073-18.1-30.091-18.357-.467-.009-.474.653-.124.828a161.73,161.73,0,0,1,29.168,18.539A.736.736,0,0,0,576.718,1289.153Z" transform="translate(-462.949 -1201.634)" fill="#b9babb" stroke="#1a2337" stroke-linecap="round" stroke-linejoin="round" stroke-width="1.104"/>
                  </g>
                  <path id="Path_13287" data-name="Path 13287" d="M557.392,1268.858c-10.306-.313-20.113-5.079-29.675-8.428a1.428,1.428,0,0,1-.473-2.257.308.308,0,0,1,.056-.493,61.406,61.406,0,0,1,30.457-9c6.275-.046,14.546,3.167,14.057,10.845C571.352,1266.789,563.408,1269.042,557.392,1268.858Zm8.159-5.263c9.613-8.432-5.053-11.969-9.676-11.75a65.95,65.95,0,0,0-8.9,1.186c-6.117,1.139-11.957,3.126-17.9,4.866,4.8,1.356,9.437,3.112,14.18,4.645C548.906,1264.369,560.252,1268.243,565.551,1263.6Z" transform="translate(-432.746 -1208.279)" fill="#b9babb" stroke="#1a2337" stroke-linecap="round" stroke-linejoin="round" stroke-width="1.104"/>
                  <path id="Path_13288" data-name="Path 13288" d="M563.513,1226.646c6.718-3.753,13.182,2.325,15.847,8.005a61.4,61.4,0,0,1,5.012,31.363.307.307,0,0,1-.42.261,1.429,1.429,0,0,1-2.242.546c-7.144-7.183-15.672-13.978-20.4-23.14C558.549,1238.334,557.158,1230.195,563.513,1226.646Zm9.592,27.071c3.429,3.619,7.013,7.047,10.307,10.791-.995-6.115-1.719-12.241-3.33-18.253a66.217,66.217,0,0,0-2.766-8.54c-1.8-4.264-11.314-15.973-14.775-3.663C560.631,1240.837,569.02,1249.4,573.1,1253.716Z" transform="translate(-487.367 -1215.246)" fill="#b9babb" stroke="#1a2337" stroke-linecap="round" stroke-linejoin="round" stroke-width="1.104"/>
                </g>
              </g>
            </g>
            <g id="Group_11081" data-name="Group 11081" transform="translate(194.277)">
              <path id="Path_13289" data-name="Path 13289" d="M435.566,1435.156H312.593s1.247-90.1-.026-163.2c-.051-2.547-.075-5.067-.127-7.587-.1-5.066-.178-10.083-.28-15v-.026c-.051-2.52-.1-4.99-.152-7.434-.1-5.143-.2-10.134-.332-14.946,0-.712-.025-1.451-.051-2.164-.026-1.833-.077-3.641-.1-5.4-.127-5.194-.255-10.134-.408-14.768-.051-2.546-.127-4.991-.2-7.333-.332-11-.688-19.682-1.07-25.053-1.577-22.839-20.164-125.242-35.569-207.635a1.438,1.438,0,0,1-.075-.356c-.255-1.247-.485-2.52-.714-3.768-.025-.1-.051-.229-.077-.356-.229-1.222-.458-2.443-.662-3.64a.289.289,0,0,1-.025-.127c-.026-.128-.051-.255-.077-.358-.229-1.272-.458-2.52-.713-3.743a1.55,1.55,0,0,0-.051-.356c-10.185-54.283-18.435-96.93-18.435-96.93H383.223s40.1,271.058,45.549,316.022C434.221,1215.942,435.566,1435.156,435.566,1435.156Z" transform="translate(-127.018 -854.982)" fill="#1eebbc" stroke="#1a2337" stroke-linecap="round" stroke-linejoin="round" stroke-width="1.104"/>
              <path id="Path_13290" data-name="Path 13290" d="M457.754,1403.075s-143.693-6.083-181.088-36.219,46.406-254.885,46.406-254.885L437.143,922.494l120.765,106Z" transform="translate(-267.056 -834.701)" fill="#1a2337" stroke="#1a2337" stroke-linecap="round" stroke-linejoin="round" stroke-width="1.104"/>
              <path id="Path_13291" data-name="Path 13291" d="M228.376,1389.971,253.043,939.1H355.758l41.462,473.244-168.987.641Z" transform="translate(-55.883 -829.712)" fill="#1e54c1" stroke="#1a2337" stroke-linecap="round" stroke-linejoin="round" stroke-width="1.104"/>
            </g>
            <g id="Group_11083" data-name="Group 11083" transform="translate(48.303 0.01)">
              <path id="Path_13292" data-name="Path 13292" d="M683.078,854.99c2.1,64.217-23.586,86.8-23.586,86.8s-53.921,183.169-83.889,238.565S371.7,1364.074,371.7,1364.074l-79.019-103.068s157.626-95.775,171.249-118.932c7.574-12.875,66.383-162.963,64.027-177.015C516.71,898.044,538.826,854.99,538.826,854.99Z" transform="translate(-279.694 -854.99)" fill="#1eebbc" stroke="#1a2337" stroke-linecap="round" stroke-linejoin="round" stroke-width="1.104"/>
              <path id="Path_13293" data-name="Path 13293" d="M590.716,863.332s-52.184,220.529-70.11,245.285L336.568,1249.294s120.7,157.46,161.332,188.077l148.616-244.194L683,986.885,663.553,858.032Z" transform="translate(-336.568 -854.076)" fill="#1e54c1" stroke="#1a2337" stroke-linecap="round" stroke-linejoin="round" stroke-width="1.104"/>
              <g id="Group_11082" data-name="Group 11082" transform="translate(320.994 3.498)">
                <path id="Path_13294" data-name="Path 13294" d="M366.184,936.437c-7.449,29.947-10.269,41.375-20.247,70.569-9.951,29.12-21.271,57.842-30.181,87.3-.074.246.319.424.424.179,11.929-27.993,21.979-56.908,31.918-85.658C358.3,979.31,361.367,967.49,368.23,937,368.53,935.674,366.515,935.107,366.184,936.437Z" transform="translate(-315.746 -834.248)" fill="#1eebbc" stroke="#1a2337" stroke-linecap="round" stroke-linejoin="round" stroke-width="1.104"/>
                <path id="Path_13295" data-name="Path 13295" d="M334.376,926.506c-12.2,5.684-23.762,13.151-34.76,20.861a.415.415,0,0,0,.419.716c11.757-6.581,23.781-12.96,35.16-20.178A.811.811,0,0,0,334.376,926.506Z" transform="translate(-261.854 -837.031)" fill="#1eebbc" stroke="#1a2337" stroke-linecap="round" stroke-linejoin="round" stroke-width="1.104"/>
                <path id="Path_13296" data-name="Path 13296" d="M322.676,858c-.078-.421-.835-.437-.784.022a412.521,412.521,0,0,1,2.256,41.353c.095,6.4-1.325,41.988-12.591,40.587-1.886-.234-3.017-1.948-3.6-4.693-.7-3.3.127-7.527.332-10.9.45-7.465.657-14.929.507-22.406a202.166,202.166,0,0,0-4.8-41.414.357.357,0,0,0-.7.114c2.029,19.15,3.536,38.318,2.665,57.587-.419,9.26-3.568,23.467,6.113,23.869,9.862.408,13.728-23.241,14.252-29.653C327.786,894.566,325.927,875.607,322.676,858Z" transform="translate(-258.116 -857.68)" fill="#1eebbc" stroke="#1a2337" stroke-linecap="round" stroke-linejoin="round" stroke-width="1.104"/>
                <path id="Path_13297" data-name="Path 13297" d="M315.136,921.862a59.511,59.511,0,0,0-1.71,7.524c-.328,1.968-.828,4.109-.4,6.079.083.382.6.367.778.082,1.118-1.771,1.428-4.064,1.945-6.079.6-2.333,1.251-4.658,1.784-7.008A1.236,1.236,0,0,0,315.136,921.862Z" transform="translate(-261.303 -838.667)" fill="#1eebbc" stroke="#1a2337" stroke-linecap="round" stroke-linejoin="round" stroke-width="1.104"/>
              </g>
            </g>
          </g>
          <g id="Group_11089" data-name="Group 11089" transform="translate(301.726 94.033)">
            <g id="Group_11086" data-name="Group 11086" transform="translate(94.988)">
              <path id="Path_13298" data-name="Path 13298" d="M161.19,736.6c1.118,21.618,33.707,136.485,70.844,160.6,34.752,22.565,131.333,6.861,151.7.67,8.931-2.717-7.375-56.9-15.411-62.819s-92.645,5.657-99.71,3.256-46.943-52.493-66.8-82.725C189.271,736.491,160.4,721.367,161.19,736.6Z" transform="translate(-160.226 -727.721)" fill="#1eebbc" stroke="#1a2337" stroke-linecap="round" stroke-linejoin="round" stroke-width="1.104"/>
              <g id="Group_11085" data-name="Group 11085" transform="translate(0)">
                <path id="Path_13299" data-name="Path 13299" d="M273.961,733.058c-4.074,17.548,18.012,102.5,20.081,102.6s59.379-29.106,59.5-31.865-26.959-39.142-39.722-53.661S276.9,720.391,273.961,733.058Z" transform="translate(-273.461 -728.33)" fill="#1e54c1" stroke="#1a2337" stroke-linecap="round" stroke-linejoin="round" stroke-width="1.104"/>
                <path id="Path_13300" data-name="Path 13300" d="M333.572,777.942c-9.287,4.4-45.318,24.718-54.1,30.11a.55.55,0,0,0,.559.947c9.281-4.477,45.584-24.363,54.136-30.043A.589.589,0,0,0,333.572,777.942Z" transform="translate(-261.841 -713.447)" fill="#1eebbc" stroke="#1a2337" stroke-linecap="round" stroke-linejoin="round" stroke-width="1.104"/>
              </g>
            </g>
            <g id="Group_11087" data-name="Group 11087" transform="translate(7.535 0.704)">
              <path id="Path_13301" data-name="Path 13301" d="M348.408,732.959c-22.791,14.5-37.661,40.094-44.284,63.423S280.2,895.574,283.975,897.7s50.044,35.486,90.775,27.85,57.258-18.245,62.453-24.18S420.686,789.386,415.885,770.3s-19.673-40.222-24.173-40.8S357.092,727.434,348.408,732.959Z" transform="translate(-283.442 -728.872)" fill="#1e54c1" stroke="#1a2337" stroke-linecap="round" stroke-linejoin="round" stroke-width="1.104"/>
              <path id="Path_13302" data-name="Path 13302" d="M365.626,738.392a.438.438,0,0,0-.875,0c-.312,7.075.265,15.021-5.271,20.412-6.111,5.953-15.819,2.572-22.428-.7-10.31-5.1-18.061-13.843-24.314-23.3a.329.329,0,0,0-.567.332c7.143,12.626,18.568,24.271,33.1,27.781C361.671,766.883,367.236,752.363,365.626,738.392Z" transform="translate(-248.632 -727.134)" fill="#1a2337" stroke="#1a2337" stroke-linecap="round" stroke-linejoin="round" stroke-width="1.104"/>
            </g>
            <path id="Path_13303" data-name="Path 13303" d="M427.96,941.69c-.84.433-17.569-1.834-37.1-8.936-.458-.154-.866-.281-1.3-.459-.482-.2-.992-.381-1.5-.559-.356-.153-.687-.281-1.043-.408-.408-.178-.84-.33-1.248-.484-.152-.051-.28-.1-.407-.152-.739-.306-1.451-.611-2.164-.917-.433-.178-.84-.356-1.273-.561-.866-.33-1.706-.713-2.572-1.069-.407-.2-.84-.407-1.247-.585-13.138-6.009-26.276-14.233-35.9-25.309-4.354-4.991,11.865-60.826,23.246-97.617.128-.356.255-.765.356-1.121.484-1.577.994-3.105,1.451-4.607.127-.408.255-.789.382-1.172.051-.2.1-.407.152-.585.459-1.4.866-2.75,1.273-4.048a11.058,11.058,0,0,0,.356-1.121c.026-.1.077-.229.1-.33.51-1.5.943-2.929,1.4-4.3v-.026c.1-.382.229-.763.355-1.146,1.376-4.3,2.5-7.791,3.285-10.159,6.594-20.038,42.622-47.536,42.622-47.536S429.539,940.9,427.96,941.69Z" transform="translate(-341.483 -728.286)" fill="#fbc0cb" stroke="#1a2337" stroke-linecap="round" stroke-linejoin="round" stroke-width="1.104"/>
            <g id="Group_11088" data-name="Group 11088" transform="translate(119.047 2.64)">
              <path id="Path_13304" data-name="Path 13304" d="M279.211,730.361s28.847,194.273,31.576,195.989,16.057-16.588,16.948-26.1S303.582,769.036,298.15,758.221,279.211,730.361,279.211,730.361Z" transform="translate(-279.211 -730.361)" fill="#fbc0cb" stroke="#1a2337" stroke-linecap="round" stroke-linejoin="round" stroke-width="1.104"/>
            </g>
            <path id="Path_13305" data-name="Path 13305" d="M422.56,759.591,406.5,922.389c-.356-.153-.687-.281-1.043-.408-.408-.178-.84-.33-1.248-.484-.152-.051-.28-.1-.407-.152-.739-.306-1.451-.611-2.164-.917-.433-.178-.84-.356-1.273-.56-.866-.33-1.706-.713-2.572-1.069-.407-.2-.84-.407-1.247-.585-13.138-6.009-26.276-14.233-35.9-25.309-4.354-4.991,11.865-60.827,23.246-97.618.127-.356.255-.765.356-1.121.484-1.577.993-3.105,1.451-4.607.127-.408.255-.789.382-1.172.051-.2.1-.407.152-.585.459-1.4.866-2.75,1.273-4.048a11.045,11.045,0,0,0,.356-1.121c.026-.1.077-.229.1-.33Z" transform="translate(-359.923 -718.94)" fill="#1a2337" stroke="#1a2337" stroke-linecap="round" stroke-linejoin="round" stroke-width="1.104"/>
          </g>
          <g id="Group_11097" data-name="Group 11097" transform="translate(363.706)">
            <g id="Group_11091" data-name="Group 11091" transform="translate(17.672 65.225)">
              <g id="Group_11090" data-name="Group 11090">
                <path id="Path_13306" data-name="Path 13306" d="M349.479,761.485c-8.371,2.753-24.156-9.043-30.856-19.126-.457-.693,0-8.435.108-17.867.043-5.726-.044-12.1-.542-17.912-.109-1.193,4.142.65,4.142.65l7.676,1.172,25.392,3.9s-2.536,12.49-1.6,22.618a12.935,12.935,0,0,0,.455,2.363c.021.108.065.238.086.39C355.463,742.141,357.567,758.816,349.479,761.485Z" transform="translate(-318.186 -706.177)" fill="#ffe35b" stroke="#1a2337" stroke-linecap="round" stroke-linejoin="round" stroke-width="1.104"/>
              </g>
              <path id="Path_13307" data-name="Path 13307" d="M352.2,736.77c.021.108.065.238.086.39a23,23,0,0,1-3.73.52c-24.589,1.562-30.336-29.381-30.336-29.381l9.736-.412,25.392,3.9s-2.536,12.49-1.6,22.618A12.949,12.949,0,0,0,352.2,736.77Z" transform="translate(-316.139 -705.663)" fill="#192337" stroke="#1a2337" stroke-linecap="round" stroke-linejoin="round" stroke-width="1.104"/>
            </g>
            <g id="Group_11096" data-name="Group 11096" transform="translate(0)">
              <g id="Group_11092" data-name="Group 11092" transform="translate(63.386 45.384)">
                <path id="Path_13308" data-name="Path 13308" d="M304.629,693.079c2.28-1.775,6.2-2.806,8.31-1.7,5.563,2.9-.425,20.6-6.826,23.145a10.012,10.012,0,0,1-5.927,0" transform="translate(-300.186 -690.92)" fill="#ffe35b" stroke="#1a2337" stroke-linecap="round" stroke-linejoin="round" stroke-width="1.104"/>
              </g>
              <g id="Path_13309" data-name="Path 13309" transform="translate(-244.511 -641.73)" fill="#b9babb" stroke-linecap="round" stroke-linejoin="round">
                <path d="M 307.5462036132812 723.4105224609375 C 307.5460815429688 723.4105224609375 307.5459899902344 723.4105224609375 307.5458679199219 723.4105224609375 C 306.0387268066406 723.410400390625 304.9111633300781 722.8033447265625 304.1943969726562 721.6062622070312 C 303.6156311035156 720.6396484375 303.3222045898438 719.2802734375 303.322265625 717.5657958984375 C 303.3223571777344 714.7742919921875 304.0832214355469 711.5615234375 304.7214660644531 709.35791015625 C 305.138671875 707.9175415039062 305.5245361328125 706.8369750976562 305.7174072265625 706.321044921875 C 305.8534545898438 705.9571533203125 305.9786682128906 705.6448364257812 306.0794677734375 705.41796875 C 306.2131958007812 705.1170654296875 306.36474609375 704.7759399414062 306.7566528320312 704.7759399414062 L 306.9945983886719 704.7759399414062 L 307.1619873046875 704.9507446289062 C 307.2932434082031 705.0897216796875 307.9533081054688 705.6791381835938 308.3385620117188 706.01806640625 L 308.6136474609375 706.260009765625 L 308.4974670410156 706.6075439453125 C 308.4884643554688 706.634521484375 307.5885009765625 709.3433837890625 307.0214538574219 712.45458984375 C 306.2907104492188 716.4639892578125 306.4275207519531 719.3095092773438 307.4171447753906 720.6835327148438 C 307.8818664550781 721.3287353515625 308.5393676757812 721.6423950195312 309.4270324707031 721.6423950195312 C 309.4272766113281 721.6423950195312 309.4273681640625 721.6423950195312 309.4276123046875 721.6423950195312 C 310.1416015625 721.6422729492188 311.0025939941406 721.4371337890625 311.9866333007812 721.03271484375 C 313.2339477539062 720.5201416015625 314.0586242675781 719.6542358398438 314.5078125 718.3855590820312 C 316.3077392578125 713.3017578125 311.2447814941406 703.944580078125 311.1934204101562 703.8507080078125 L 312.0731811523438 703.2008056640625 C 314.9050903320312 706.1094970703125 316.8415832519531 708.84619140625 317.8288879394531 711.334716796875 C 318.7373657226562 713.6245727539062 318.8516540527344 715.7063598632812 318.1685791015625 717.5223388671875 C 317.5261535644531 719.2302856445312 316.1576538085938 720.6787109375 314.2110595703125 721.7109375 C 312.4865417480469 722.62548828125 310.3449096679688 723.20654296875 308.0177001953125 723.3912963867188 C 307.8573303222656 723.404052734375 307.6986999511719 723.4105224609375 307.5462036132812 723.4105224609375 Z" stroke="none"/>
                <path d="M 311.6777038574219 703.5858154296875 C 311.6777038574219 703.5858154296875 319.7947082519531 718.4208374023438 312.1964721679688 721.543212890625 C 301.4422302246094 725.9630737304688 307.9739990234375 706.4324951171875 307.9739990234375 706.4324951171875 C 307.9739990234375 706.4324951171875 306.9584045410156 705.5391235351562 306.7607116699219 705.3297119140625 C 306.7595825195312 705.3284912109375 306.7582092285156 705.3279418945312 306.7566528320312 705.3279418945312 C 306.4837036132812 705.3279418945312 299.6854858398438 723.5003051757812 307.9739990234375 722.841064453125 C 316.3109130859375 722.1791381835938 323.853271484375 716.0918579101562 311.6777038574219 703.5858154296875 M 311.6775512695312 702.48193359375 C 311.9666748046875 702.48193359375 312.2538757324219 702.5950927734375 312.4686889648438 702.8157348632812 C 315.3516235351562 705.7769165039062 317.3276672363281 708.5746459960938 318.3419494628906 711.1311645507812 C 319.3026123046875 713.5525512695312 319.4181213378906 715.7682495117188 318.6852111816406 717.7166748046875 C 317.9946594238281 719.552490234375 316.5369567871094 721.1023559570312 314.4696655273438 722.1986083984375 C 312.6790771484375 723.1481323242188 310.463134765625 723.7508544921875 308.0613708496094 723.9415283203125 C 306.1214294433594 724.0957641601562 304.6131286621094 723.380126953125 303.7209777832031 721.8902587890625 C 303.0901489257812 720.8369140625 302.7702941894531 719.3822021484375 302.7702941894531 717.5665893554688 C 302.7702941894531 714.7102661132812 303.5429992675781 711.4428100585938 304.1911926269531 709.2047119140625 C 304.6134643554688 707.7467041015625 305.0047302246094 706.651123046875 305.2003784179688 706.1278686523438 C 305.3402404785156 705.7537231445312 305.4697875976562 705.4307861328125 305.5750427246094 705.1939086914062 C 305.7256469726562 704.8549194335938 306.0059509277344 704.2239379882812 306.7566528320312 704.2239379882812 C 307.0609436035156 704.2239379882812 307.3558044433594 704.3513793945312 307.5644226074219 704.5728759765625 C 307.6683349609375 704.68212890625 308.2367248535156 705.1932983398438 308.703125 705.6036376953125 C 309.0365905761719 705.8969116210938 309.1618041992188 706.3615112304688 309.0209350585938 706.78271484375 C 309.0120544433594 706.8092041015625 308.1214904785156 709.491455078125 307.562255859375 712.5653686523438 C 306.6303100585938 717.6881713867188 307.3520202636719 719.6482543945312 307.8651733398438 720.3607177734375 C 308.2237243652344 720.8585205078125 308.7202453613281 721.0903930664062 309.4277038574219 721.0903930664062 C 310.0690307617188 721.0903930664062 310.859375 720.8992309570312 311.7767944335938 720.5221557617188 C 312.870361328125 720.07275390625 313.5933837890625 719.3138427734375 313.9872131347656 718.2020263671875 C 314.6795349121094 716.2476806640625 314.3504638671875 713.2230224609375 313.03564453125 709.455078125 C 312.00341796875 706.4969482421875 310.7218933105469 704.1388549804688 310.7090759277344 704.1154174804688 C 310.4444885253906 703.631103515625 310.5780944824219 703.0256958007812 311.0220642089844 702.6978759765625 C 311.2182922363281 702.552978515625 311.4485168457031 702.48193359375 311.6775512695312 702.48193359375 Z" stroke="none" fill="#1a2337"/>
              </g>
              <g id="Group_11093" data-name="Group 11093" transform="translate(7.939)">
                <path id="Path_13310" data-name="Path 13310" d="M308.267,675.734c-4.5,12.795.776,50.522,9.645,59.257,12.857,12.662,34.687,14.736,45.643-.9,10.619-15.154,2.875-64.2-7.1-72.217C341.752,650.067,314.91,656.834,308.267,675.734Z" transform="translate(-306.628 -656.02)" fill="#ffe35b" stroke="#1a2337" stroke-linecap="round" stroke-linejoin="round" stroke-width="1.104"/>
              </g>
              <g id="Group_11094" data-name="Group 11094" transform="translate(21.886 39.606)">
                <path id="Path_13311" data-name="Path 13311" d="M300.252,702.719s12.821,5.026,25.193-2.066c0,0,2.845-13.068-12.064-14.1S300.252,702.719,300.252,702.719Z" transform="translate(-269.208 -686.468)" fill="#fff" stroke="#1a2337" stroke-linecap="round" stroke-linejoin="round" stroke-width="1.104"/>
                <path id="Path_13312" data-name="Path 13312" d="M323.8,701.718s12.364,6.059,25.276.005c0,0,3.908-12.791-10.868-15.044S323.8,701.718,323.8,701.718Z" transform="translate(-323.801 -686.476)" fill="#fff" stroke="#1a2337" stroke-linecap="round" stroke-linejoin="round" stroke-width="1.104"/>
                <path id="Path_13313" data-name="Path 13313" d="M316.908,714.768l6.172-2.126a3.836,3.836,0,0,0,2.506-4.4l-4.382-21.18" transform="translate(-290.956 -686.301)" fill="#ffe35b" stroke="#1a2337" stroke-linecap="round" stroke-linejoin="round" stroke-width="1.104"/>
              </g>
              <g id="Group_11095" data-name="Group 11095" transform="translate(0 45.384)">
                <path id="Path_13314" data-name="Path 13314" d="M359.44,693.079c-2.28-1.775-6.2-2.806-8.31-1.7-5.563,2.9.424,20.6,6.826,23.145a10.012,10.012,0,0,0,5.927,0" transform="translate(-348.929 -690.92)" fill="#ffe35b" stroke="#1a2337" stroke-linecap="round" stroke-linejoin="round" stroke-width="1.104"/>
              </g>
              <g id="Path_13315" data-name="Path 13315" transform="translate(-343.738 -640.543)" fill="#b9babb" stroke-linecap="round" stroke-linejoin="round">
                <path d="M 352.55615234375 724.954345703125 C 351.214599609375 724.954345703125 350.1458740234375 724.3992309570312 349.4496459960938 723.3451538085938 C 347.7774047851562 722.9267578125 346.0023193359375 721.4242553710938 346.4423828125 716.7950439453125 C 346.6494750976562 714.6165771484375 347.2781677246094 712.4090576171875 347.7690734863281 710.9408569335938 C 348.0140686035156 710.2080688476562 348.2822265625 709.4915771484375 348.5241394042969 708.9232177734375 C 348.6279602050781 708.6793212890625 348.7231140136719 708.4722900390625 348.7993469238281 708.3244018554688 C 348.8956298828125 708.1376342773438 349.0567626953125 707.8250732421875 349.4223022460938 707.8250732421875 C 349.57470703125 707.8250732421875 349.7223205566406 707.888427734375 349.8273315429688 707.9989624023438 C 349.9596862792969 708.1392211914062 350.6196899414062 708.728515625 351.0049133300781 709.0673217773438 L 351.2759094238281 709.3057250976562 L 351.1662292480469 709.6495971679688 C 351.15869140625 709.6732177734375 350.4067077636719 712.0460815429688 349.9325561523438 714.843505859375 C 349.3503723144531 718.2785034179688 349.4277954101562 720.8646240234375 350.1538696289062 722.3539428710938 C 350.3301696777344 722.3754272460938 350.5161437988281 722.3862915039062 350.7095031738281 722.3862915039062 C 350.7096252441406 722.3862915039062 350.7097473144531 722.3862915039062 350.7098693847656 722.3862915039062 C 350.8578186035156 722.3862915039062 351.0131530761719 722.3798828125 351.1715698242188 722.3673706054688 C 353.8490600585938 722.154541015625 356.0171203613281 721.659912109375 357.6200561523438 720.8965454101562 C 358.2689514160156 719.3981323242188 358.3048706054688 717.3059692382812 357.7261657714844 714.673583984375 C 357.194091796875 712.2532958984375 356.241455078125 709.8683471679688 355.5359802246094 708.2938232421875 C 355.4049072265625 708.0015869140625 355.4275512695312 707.6826782226562 355.5982055664062 707.4190673828125 C 355.770751953125 707.152587890625 356.07373046875 706.9869995117188 356.3889465332031 706.9869995117188 C 356.6576232910156 706.9869995117188 356.9046020507812 707.1026611328125 357.0844116210938 707.3125610351562 C 358.94921875 709.4827270507812 360.2824401855469 711.477294921875 361.0464172363281 713.240234375 C 361.7727966308594 714.9163818359375 362.0071716308594 716.4334106445312 361.7430419921875 717.7491455078125 C 361.4095764160156 719.4102172851562 360.302978515625 720.7434692382812 358.4529113769531 721.7142333984375 C 357.8517761230469 722.8695678710938 356.9087219238281 723.7174072265625 355.6473083496094 724.2357177734375 C 354.4877624511719 724.7123413085938 353.4480590820312 724.9541625976562 352.5571594238281 724.954345703125 C 352.5569152832031 724.954345703125 352.556396484375 724.954345703125 352.55615234375 724.954345703125 Z" stroke="none"/>
                <path d="M 356.3889465332031 707.5390014648438 C 356.1449584960938 707.5389404296875 355.9141540527344 707.7882690429688 356.0397033691406 708.068115234375 C 357.537109375 711.4102172851562 359.8102722167969 717.6119995117188 358.0401000976562 721.3056640625 C 361.992919921875 719.3241577148438 363.2302551269531 715.3114624023438 356.6651611328125 707.671630859375 C 356.5855102539062 707.57861328125 356.4861450195312 707.5390014648438 356.3889465332031 707.5390014648438 M 349.4223022460938 708.3770141601562 C 349.161376953125 708.3770141601562 343.7058410644531 721.6880493164062 349.7962341308594 722.8565673828125 C 347.5888671875 719.0411987304688 350.640380859375 709.4818115234375 350.640380859375 709.4818115234375 C 350.640380859375 709.4818115234375 349.6247253417969 708.5885009765625 349.4271545410156 708.379150390625 C 349.4258117675781 708.3777465820312 349.4241638183594 708.3770141601562 349.4223022460938 708.3770141601562 M 358.0401000976562 721.3056640625 C 356.1871643066406 722.2344970703125 353.7373046875 722.7171020507812 351.2151794433594 722.9176025390625 C 350.6844787597656 722.9595947265625 350.2132568359375 722.9366455078125 349.7962341308594 722.8565673828125 C 350.6730346679688 724.3721923828125 352.38037109375 724.9817504882812 355.4375305175781 723.7251586914062 C 356.7059936523438 723.2039184570312 357.53662109375 722.3561401367188 358.0401000976562 721.3056640625 M 356.3888854980469 706.43505859375 C 356.3889465332031 706.43505859375 356.3890380859375 706.43505859375 356.3890991210938 706.43505859375 C 356.8153076171875 706.4351196289062 357.2215270996094 706.6241455078125 357.503662109375 706.9535522460938 C 359.404052734375 709.1650390625 360.7668151855469 711.2068481445312 361.5528869628906 713.020751953125 C 362.3248596191406 714.8021850585938 362.5709228515625 716.4295654296875 362.2842102050781 717.8577880859375 C 361.9256286621094 719.6439819335938 360.7742309570312 721.0772705078125 358.8601684570312 722.122314453125 C 358.1955871582031 723.318115234375 357.1869506835938 724.1998291015625 355.8570861816406 724.7462768554688 C 354.6302185058594 725.2505493164062 353.5198669433594 725.5062866210938 352.5570678710938 725.5062866210938 C 351.09326171875 725.5062866210938 349.9111022949219 724.9269409179688 349.1098022460938 723.82421875 C 347.7935791015625 723.4317626953125 346.8282470703125 722.5145263671875 346.3019714355469 721.1473999023438 C 345.8614807128906 720.0031127929688 345.7238159179688 718.5211791992188 345.8928833007812 716.7427978515625 C 346.1049194335938 714.5123291015625 346.7455139160156 712.2613525390625 347.24560546875 710.7658081054688 C 347.4950866699219 710.0195922851562 347.768798828125 709.2884521484375 348.0162658691406 708.70703125 C 348.1268310546875 708.447265625 348.2252197265625 708.2334594726562 348.3087158203125 708.0714721679688 C 348.4212951660156 707.8530883789062 348.7203369140625 707.2730712890625 349.4223022460938 707.2730712890625 C 349.7252197265625 707.2730712890625 350.0186462402344 707.3990478515625 350.2273864746094 707.61865234375 C 350.3350219726562 707.7318725585938 350.9032592773438 708.2428588867188 351.3694458007812 708.6528930664062 C 351.6987915039062 708.9425659179688 351.8254089355469 709.399658203125 351.6920471191406 709.8175048828125 C 351.6846618652344 709.8406372070312 350.9415283203125 712.1875610351562 350.4746398925781 714.9483642578125 C 349.9573974609375 718.0068359375 349.9793701171875 720.4144897460938 350.5277709960938 721.8306274414062 C 350.7166137695312 721.8383178710938 350.9176330566406 721.833740234375 351.1279907226562 721.8170776367188 C 353.6313171386719 721.6181030273438 355.6680297851562 721.171142578125 357.190185546875 720.4873046875 C 358.1246032714844 718.0169677734375 357.3507995605469 713.6943359375 355.0322570800781 708.5194702148438 C 354.8262634277344 708.060302734375 354.8645324707031 707.53662109375 355.1348876953125 707.1190185546875 C 355.4080200195312 706.6971435546875 355.8885192871094 706.43505859375 356.3888854980469 706.43505859375 Z" stroke="none" fill="#1a2337"/>
              </g>
              <path id="Path_13316" data-name="Path 13316" d="M346.355,716.441c-.008,0-.009-.013,0-.014" transform="translate(-328.046 -637.873)" fill="#1eebbc" stroke="#1a2337" stroke-linecap="round" stroke-linejoin="round" stroke-width="1.104"/>
            </g>
          </g>
          <g id="Group_11098" data-name="Group 11098" transform="translate(153.052 95.518)">
            <rect id="Rectangle_4903" data-name="Rectangle 4903" width="280.075" height="442.7" transform="matrix(-0.463, -0.886, 0.886, -0.463, 153.583, 477.685)" fill="#1eebbc" stroke="#1a2337" stroke-linecap="round" stroke-linejoin="round" stroke-width="1.104"/>
            <rect id="Rectangle_4904" data-name="Rectangle 4904" width="280.075" height="442.7" transform="matrix(-0.463, -0.886, 0.886, -0.463, 153.583, 477.685)" fill="#fff" stroke="#1a2337" stroke-linecap="round" stroke-linejoin="round" stroke-width="1.104"/>
            <path id="Path_13317" data-name="Path 13317" d="M159.794,791.471l165.739,45.053,4.5-16.553-158.9-43.194Z" transform="translate(141.527 -715.261)" fill="#b631f4" stroke="#1a2337" stroke-linecap="round" stroke-linejoin="round" stroke-width="1.104"/>
            <rect id="Rectangle_4905" data-name="Rectangle 4905" width="171.754" height="17.154" transform="matrix(-0.965, -0.262, 0.262, -0.965, 260.613, 435.329)" fill="#b631f4" stroke="#1a2337" stroke-linecap="round" stroke-linejoin="round" stroke-width="1.104"/>
            <path id="Path_13318" data-name="Path 13318" d="M264.542,1130.377q51.514-23.191,101.036-50.481,25.795-14.255,50.963-29.608c12.929-7.888,25.73-16.04,39.625-21.944l1.96,20.42c-11.745,5.61-22.718,12.889-33.837,19.646q-25.186,15.3-51.016,29.515-51.646,28.423-105.6,52.318c-5.042,2.238-10.155,1.3-13.345-3.5l-1.736-2.611C246.97,1135.677,256.868,1127.687,264.542,1130.377Z" transform="translate(-105.09 -639.689)" fill="#1a2337"/>
            <path id="Path_13319" data-name="Path 13319" d="M506.956,729.472,654.05,1010.7,231.341,1231.8,84.245,950.565ZM237.828,1207.157l392.282-205.178L500.305,753.8,108.023,958.979Z" transform="translate(-84.245 -729.472)" fill="#25a1f4" stroke="#1a2337" stroke-linecap="round" stroke-linejoin="round" stroke-width="1.104"/>
            <path id="Path_13320" data-name="Path 13320" d="M143.1,804.76c4.048-2.248,8.845-2.586,13.376-2.278,1.909.129,3.8.449,5.7.619.254.03.508.044.762.07.289-8.913,4.086-17.327,14.4-19.219a9.8,9.8,0,0,1,7.167,1.3,142.181,142.181,0,0,0,.28,16.826,10.327,10.327,0,0,1-2.261.681c-1.373.252.562,8.061.167,10.073a20.566,20.566,0,0,1,8.991,6.042,180.454,180.454,0,0,0,5.692,17.393c2.6,6.71,5.589,13.3,8.693,19.8a37.465,37.465,0,0,0,3.758,6.41,9.22,9.22,0,0,1-6.769,8.735,53.8,53.8,0,0,1-13.126,2.447,47.692,47.692,0,0,1-11.112,5.821c-8.388,3.147-15.773.774-22.443-4.836A46.4,46.4,0,0,1,142.6,854.368c-2.836-8.17-1.438-16.935-3.93-25.07C135.854,820.1,132.461,810.665,143.1,804.76Z" transform="translate(292.901 -713.162)" fill="#1a2337"/>
            <path id="Path_13321" data-name="Path 13321" d="M314.737,861.261c7.494-18.524,23.1-30.791,38.544-42.54a7.708,7.708,0,0,1,6.172-1.277c5.927-.046,11.938,4.688,9.656,11.973q-2.83,9.031-5.659,18.065l25.582,45.407c3.867,6.865,7.366,16.066,12.766,21.848,4.905,5.252,14.133,6.24,20.5,9.1a76.07,76.07,0,0,1,33.306,29.42c4.953,8.148,4.164,14.514.741,23.029a99.545,99.545,0,0,1-11.852,21.735c-8.424,11.537-20.7,25.345-34.948,29.437-16.441,4.723-31.565-8.953-41-20.892-9.453-11.964-15.868-25.724-22.571-39.32-8.275-16.784-16.82-33.445-24.475-50.526C313.412,898.679,306.9,880.641,314.737,861.261Z" transform="translate(-184.441 -703.093)" fill="#1a2337"/>
          </g>
          <path id="Path_13322" data-name="Path 13322" d="M321.514,869.767c2.962-44.18,90.069-121.649,108.4-133.158,12.917-8.108,13.774,24.47,3.216,44.717-16.726,32.072-43.715,84.347-42.369,91.688,1.081,5.895,29.958,45.21,40.642,65.6l0,0s18.883,10.85,27.787,17.522,32.132,36.794,25.047,43.063-23.126-15.282-28.207-19.7-6.97-3.994-6.228-.221c.488,2.475,9.572,16.95,12.724,21.041,7.125,9.245,24.149,15.52,19.137,22.609-4.466,6.314-15.839.822-15.839.822-13.25-8.228-21.531-17.03-29-31.137a.271.271,0,0,0-.5.2c4.669,14.449,15.865,25.843,29.415,32.847a11.821,11.821,0,0,1,5.953,6.844c.782,2.5.616,5.064-1.793,7-2.762,2.224-6.276,2.1-9.463,1.173a21,21,0,0,1-6.9-3.581c-12.282-9.427-23.129-20.39-31.326-33.456-.137-.219-.521-.009-.4.224a92.718,92.718,0,0,0,31.575,35.224,7.37,7.37,0,0,1,3.312,4.414,5.336,5.336,0,0,1-2.488,5.988,12.679,12.679,0,0,1-7.689,2.038,19.109,19.109,0,0,1-11.821-4.745c-11.083-9.49-20.107-19.189-26.465-32.955a.328.328,0,0,0-.611.238c4.856,13.919,14.077,24.708,24.809,32.778a4.157,4.157,0,0,1-1.571,7.42l-.146.029c-9.425,1.753-24.99-11.922-31.423-20.994-6.042-8.518-21.27-42.519-25.146-51.481C360.225,962.246,318.843,909.592,321.514,869.767Z" transform="translate(-71.098 -632.191)" fill="#ffe35b" stroke="#1a2337" stroke-linecap="round" stroke-linejoin="round" stroke-width="1.104"/>
          <path id="Path_13323" data-name="Path 13323" d="M447.893,838.418q-4.28,7.43-8.956,14.614c-3.619,5.538-4.016,18.568-2.7,25.762,1.021,5.571,19.09,35.56,30.945,56.642l-71.879,51.4a251.228,251.228,0,0,1-33.87-64.4c-8.25-23.614-9.921-49.516-1.572-73.1,14.6-41.261,57.365-76.433,91.227-102.376,5.908-4.527,12.619-10.306,19.924-12.413,15.894-4.587,7.2,35.138,5.23,41.012a348,348,0,0,1-22.557,52.4Q450.878,833.229,447.893,838.418Z" transform="translate(-108.801 -632.544)" fill="#1e54c1" stroke="#1a2337" stroke-linecap="round" stroke-linejoin="round" stroke-width="1.104"/>
        </g>
        <g id="Group_11100" data-name="Group 11100" transform="translate(362.764 3.462)">
          <path id="Path_13324" data-name="Path 13324" d="M309.755,706.353c3.931-.873,6.137-11.917,6.137-11.917s14.745-2.68,26.435-13.5c8.355-7.734,10.921-15.279,10.921-15.279,6.623,22.308,24.907,27.268,24.907,27.268s2.684-17.778-5.574-27.851S347.8,643.544,325.574,653.4c0,0-16.255,6.579-20.527,20.058S304.415,707.538,309.755,706.353Z" transform="translate(-303.17 -649.632)" fill="#1a2337" stroke="#1a2337" stroke-miterlimit="10" stroke-width="1.104"/>
          <path id="Path_13325" data-name="Path 13325" d="M365.933,659.962c0-.144-.212-.122-.219.016-.466,10.7-8.957,18.656-17.611,23.831-8.09,4.837-16.427,6.67-25.667,7.7a.209.209,0,0,0,.029.416c9.648.319,19.965-3.443,27.925-8.694S366.221,670.162,365.933,659.962Z" transform="translate(-315.349 -646.558)" fill="#192337" stroke="#1a2337" stroke-linecap="round" stroke-linejoin="round" stroke-width="1.104"/>
        </g>
      </g>
    </g>
    <g id="Group_11103" data-name="Group 11103" transform="translate(344.677 365.541)">
      <path id="Path_13326" data-name="Path 13326" d="M361.839,967.156c.782,2.5.616,5.064-1.793,7-2.762,2.224-6.276,2.1-9.463,1.173a20.993,20.993,0,0,1-6.9-3.581,154.533,154.533,0,0,1-11.947-10.169c4.446-3.272,8.723-6.186,12.7-8.741a67.4,67.4,0,0,0,11.453,7.471A11.821,11.821,0,0,1,361.839,967.156Z" transform="translate(-305.916 -920.625)" fill="#f77831" stroke="#1a2337" stroke-linecap="round" stroke-linejoin="round" stroke-width="1.104"/>
      <path id="Path_13327" data-name="Path 13327" d="M321.392,935.638c2.481-3.359,7.183-5.8,12.908-7.571,3,5.969,4.212,11.045,1.745,13.228C332.545,944.392,326.861,940.7,321.392,935.638Z" transform="translate(-267.576 -928.067)" fill="#f77831" stroke="#1a2337" stroke-linecap="round" stroke-linejoin="round" stroke-width="1.104"/>
      <path id="Path_13328" data-name="Path 13328" d="M370.08,969.968a82.734,82.734,0,0,0,7.525,6.386,4.157,4.157,0,0,1-1.571,7.42l-.146.029c-4.211.783-9.646-1.518-14.947-5.107C363.95,975.634,367.008,972.721,370.08,969.968Z" transform="translate(-360.942 -915.48)" fill="#f77831" stroke="#1a2337" stroke-linecap="round" stroke-linejoin="round" stroke-width="1.104"/>
      <path id="Path_13329" data-name="Path 13329" d="M333.3,960.7a92.049,92.049,0,0,1-9.606-6.8c5.975-3.765,11.139-6.665,14.959-8.689,6.992,5.32,13.925,9.8,10.487,14.664C344.669,966.188,333.3,960.7,333.3,960.7Z" transform="translate(-283.238 -922.917)" fill="#f77831" stroke="#1a2337" stroke-linecap="round" stroke-linejoin="round" stroke-width="1.104"/>
      <path id="Path_13330" data-name="Path 13330" d="M371.287,981.823a12.679,12.679,0,0,1-7.689,2.038,19.109,19.109,0,0,1-11.821-4.745c-2.922-2.5-5.7-5.021-8.321-7.623,4.523-3.978,9.05-7.624,13.444-10.922a86.177,86.177,0,0,0,13.563,10.851,7.37,7.37,0,0,1,3.312,4.414A5.336,5.336,0,0,1,371.287,981.823Z" transform="translate(-332.847 -918.303)" fill="#f77831" stroke="#1a2337" stroke-linecap="round" stroke-linejoin="round" stroke-width="1.104"/>
    </g>
    <path id="Path_13331" data-name="Path 13331" d="M142.2,834.832a12.431,12.431,0,0,1,5.033-.6,70.825,70.825,0,0,1,8.06,1.393,39.9,39.9,0,0,0,12.36.312c7.537-.991,17.048-3.072,23.47-7.325.142-.095.074-.367-.113-.306-9.427,3.113-19.2,5.39-29.15,5.745a63.206,63.206,0,0,1-12.708-.663c-4.895-.844-11.427-3.848-11.428-9.671,0-11.266,25.562-4.152,33.424-8.795l-.861-1.609h0l-6.014-11.245h0l-.668-1.248.312-.16c-3.567-15.91,9.451-32.272,15.206-22.076,4.379,7.761-2.689,21.125,2.94,28.432h0c4.97,3.871,9.631,7.674,11.233,11.263a8.274,8.274,0,0,1-1.8,9.708s7.88,1.29,9.563,7.707c.866,3.3-3.649,7.587-3.649,7.587s.069.016.166.04a115.722,115.722,0,0,1-24.288,6.4,110.689,110.689,0,0,1-14.341,1.43c-4.692.171-9.632.121-14.141-1.347-3.421-1.114-6.874-3.361-7.727-7.081S138.86,836.031,142.2,834.832Z" transform="translate(453.198 -608.382)" fill="#ffe35b" stroke="#1a2337" stroke-linecap="round" stroke-linejoin="round" stroke-width="1.104"/>
    <g id="Group_11104" data-name="Group 11104" transform="translate(596.113 234.988)">
      <path id="Path_13332" data-name="Path 13332" d="M137.983,838.251a12.227,12.227,0,0,1,7.221-1.1c14.934,2.165,31.41-2.531,42.825-9.28a.149.149,0,0,0,.053-.2c1.341.378,6.068,2.048,7.048,7.014.912,4.62-3.748,8.221-3.748,8.221s5.428,4.059,4.848,9.064c-1.177,10.15-39.792,22.111-50.165,9.733-2.6-3.108-.242-5.1,1.847-6.139a8.183,8.183,0,0,1,4.07-.769c13.243.654,27.6-4.293,38.846-11.026a.106.106,0,0,0-.1-.187,138.233,138.233,0,0,1-36.233,8.83,33.061,33.061,0,0,1-12.927-.854c-3.524-1-7.012-2.745-8.043-5.8C132.273,842.061,135.173,839.655,137.983,838.251Z" transform="translate(-133.226 -827.673)" fill="#ffe35b" stroke="#1a2337" stroke-linecap="round" stroke-linejoin="round" stroke-width="1.104"/>
      <path id="Path_13333" data-name="Path 13333" d="M185.437,850.256a33.069,33.069,0,0,1-12.927-.854c-3.524-1-7.012-2.745-8.043-5.8-1.252-3.7,1.648-6.109,4.458-7.514a12.229,12.229,0,0,1,7.221-1.1,52.8,52.8,0,0,0,7.142.514c1.347,4.9,2.611,9.825,3.692,14.548C186.463,850.12,185.957,850.194,185.437,850.256Z" transform="translate(-164.167 -825.515)" fill="#f77831" stroke="#1a2337" stroke-linecap="round" stroke-linejoin="round" stroke-width="1.104"/>
      <path id="Path_13334" data-name="Path 13334" d="M163.179,855.443c-2.6-3.108-.242-5.1,1.847-6.139a8.18,8.18,0,0,1,4.07-.769c1.532.075,3.079.069,4.633,0,.935,4.3,1.693,8.385,2.2,12.08C170.533,860.237,165.889,858.676,163.179,855.443Z" transform="translate(-150.338 -821.41)" fill="#f77831" stroke="#1a2337" stroke-linecap="round" stroke-linejoin="round" stroke-width="1.104"/>
    </g>
    <g id="Group_11105" data-name="Group 11105" transform="translate(590.113 208.478)">
      <path id="Path_13335" data-name="Path 13335" d="M190,824.481a52.5,52.5,0,0,1-7.177-.671c-4.895-.844-11.427-3.848-11.428-9.671,0-5.432,5.944-6.588,12.981-6.852C185.851,811.617,187.855,817.637,190,824.481Z" transform="translate(-170.584 -807.287)" fill="#f77831" stroke="#1a2337" stroke-linecap="round" stroke-linejoin="round" stroke-width="1.104"/>
      <path id="Path_13336" data-name="Path 13336" d="M175.394,836.227c-3.421-1.114-6.874-3.361-7.727-7.081s1.783-6.693,5.124-7.892a12.432,12.432,0,0,1,5.033-.6,70.5,70.5,0,0,1,8.06,1.393c.529.095,1.064.151,1.6.226,1.489,4.8,3.03,9.955,4.5,15.181-.814.047-1.627.1-2.442.125C184.843,837.745,179.9,837.7,175.394,836.227Z" transform="translate(-167.505 -803.283)" fill="#f77831" stroke="#1a2337" stroke-linecap="round" stroke-linejoin="round" stroke-width="1.104"/>
    </g>
    <path id="Path_13337" data-name="Path 13337" d="M152.7,789.73c2.224-11.2,10.873-18.953,15.276-11.15,1.8,3.2,1.661,7.347,1.267,11.631A119.419,119.419,0,0,1,152.7,789.73Z" transform="translate(464.345 -608.382)" fill="#f77831" stroke="#1a2337" stroke-linecap="round" stroke-linejoin="round" stroke-width="1.104"/>
    <path id="Path_13338" data-name="Path 13338" d="M323.8,686.506a16.039,16.039,0,0,1,3.287.171c14.775,2.254,10.868,15.044,10.868,15.044a29.006,29.006,0,0,1-14.155,2.623Z" transform="translate(72.912 -635.099)" fill="#1a2337" stroke="#1a2337" stroke-miterlimit="10" stroke-width="1.104"/>
    <path id="Path_13339" data-name="Path 13339" d="M300.186,686.528c.153.007.3,0,.456.014,14.909,1.034,12.064,14.1,12.064,14.1a28.746,28.746,0,0,1-12.52,3.708Z" transform="translate(129.122 -635.086)" fill="#1a2337" stroke="#1a2337" stroke-miterlimit="10" stroke-width="1.104"/>
    <path id="Path_13340" data-name="Path 13340" d="M405.374,1115.755a14.18,14.18,0,0,1-4.178,13.29c-6.215,6.225-22.554,25.167-22.554,25.167" transform="translate(-65.672 -506.143)" fill="none" stroke="#1a2337" stroke-linecap="round" stroke-linejoin="round" stroke-width="1.104"/>
    <line id="Line_42" data-name="Line 42" x1="13.283" y2="11.765" transform="translate(20.601 721.903)" fill="none" stroke="#1a2337" stroke-linecap="round" stroke-linejoin="round" stroke-width="1.104"/>
    <path id="Path_13341" data-name="Path 13341" d="M236.673,1246.47s.341,54.375,3.519,61.213" transform="translate(284.446 -466.874)" fill="none" stroke="#1a2337" stroke-linecap="round" stroke-linejoin="round" stroke-width="1.104"/>
    <path id="Path_13342" data-name="Path 13342" d="M448.457,799.75S427.541,815.029,424.1,840.8" transform="translate(-167.555 -601.073)" fill="none" stroke="#1a2337" stroke-linecap="round" stroke-linejoin="round" stroke-width="1.104"/>
    <path id="Path_13343" data-name="Path 13343" d="M150.115,930.932s-31.557,21.022-34.855,21.246" transform="translate(532.41 -561.665)" fill="none" stroke="#1a2337" stroke-linecap="round" stroke-linejoin="round" stroke-width="1.104"/>
  </g>
</svg>
