<svg xmlns="http://www.w3.org/2000/svg" width="32.093" height="38.767" viewBox="0 0 32.093 38.767">
  <g id="icon_cart" transform="translate(0.5 0.5)">
    <path id="Fill_48" data-name="Fill 48" d="M30.2,37.767H.894A.9.9,0,0,1,.252,37.5.906.906,0,0,1,0,36.846L1.147.866A.89.89,0,0,1,2.041,0H29.027a.89.89,0,0,1,.894.865L31.063,36.64a.925.925,0,0,1,.03.234A.894.894,0,0,1,30.2,37.767ZM2.907,1.787,1.818,35.98H29.254L28.161,1.787ZM16.44,14.9H14.616a6.257,6.257,0,0,1-6.249-6.25V7.3H8.149a.894.894,0,0,1,0-1.787h2.138a.894.894,0,0,1,0,1.787h-.133v1.35a4.468,4.468,0,0,0,4.462,4.463H16.44A4.468,4.468,0,0,0,20.9,8.652V7.3h-.251a.894.894,0,0,1,0-1.787H22.79a.894.894,0,1,1,0,1.787h-.1v1.35A6.257,6.257,0,0,1,16.44,14.9Z" transform="translate(0 0)" fill="#1a2337" stroke="#1a2337" stroke-miterlimit="10" stroke-width="1"/>
  </g>
</svg>
