<svg xmlns="http://www.w3.org/2000/svg" width="302.048" height="120.444" viewBox="0 0 302.048 120.444">
  <g id="Group_11243" data-name="Group 11243" transform="translate(-437.919 -242.361)">
    <path id="Path_13780" data-name="Path 13780" d="M641.412,309.6c-14.249-1.478-28.566-2.931-42.91-2.286a122.439,122.439,0,0,0-21.308,2.593c-5.743,1.288-11.436,3.53-13.476,9.568-1.034,3.061,2.893,7.631,6.15,8.633,11.539,3.547,19.4,2.464,34.02.931,12.176-1.277,24.85-2.878,36.85-5.3,2.185-.441,13.035-3.9,11.535-9.893C656.161,310.976,647.684,310.246,641.412,309.6Z" transform="translate(62.689 32.33)" fill="#05358c"/>
    <g id="Group_11239" data-name="Group 11239" transform="translate(634.567 247.149)">
      <g id="Group_11237" data-name="Group 11237" transform="translate(0 0)">
        <rect id="Rectangle_4954" data-name="Rectangle 4954" width="95.761" height="95.761" rx="10.718" transform="translate(0 9.571) rotate(-5.736)" fill="#fff" stroke="#d3d3d3" stroke-miterlimit="10" stroke-width="1"/>
      </g>
      <g id="Group_11238" data-name="Group 11238" transform="translate(18.855 21.535)">
        <g id="Group_3861" data-name="Group 3861" transform="translate(0 17.66)">
          <path id="Path_10286" data-name="Path 10286" d="M604.451,272.025a6.956,6.956,0,0,0-7.308,1.992c-1.258,1.436-2.473,2.941-3.649,4.4l-1.057,1.292q-2.665,3.283-5.329,6.588l-3.407,4.233a14.5,14.5,0,0,0-1,1.4,6.839,6.839,0,0,0,1.571,8.923l3,2.436q6.882,5.563,13.782,11.13A7.3,7.3,0,0,0,606.6,316l.169-.027a7.1,7.1,0,0,0,5.515-9.465,7.424,7.424,0,0,0-2.371-3.26c-.5-.424-1.019-.838-1.532-1.25l-.935-.753c-.3-.237-.592-.475-.884-.718-.507-.417-3.316-3.08-3.647-4.918-1.006-3.526,1.091-7.422,2.35-9l.163-.205c.865-1.084,1.73-2.168,2.593-3.262a6.879,6.879,0,0,0,1.132-6.492,6.971,6.971,0,0,0-4.7-4.62" transform="translate(-581.684 -271.703)" fill="#009ff8"/>
        </g>
        <g id="Group_3862" data-name="Group 3862" transform="translate(34.035)">
          <path id="Path_10287" data-name="Path 10287" d="M623.97,297.124l.706-.863q3.987-4.918,7.969-9.866l.774-.956c.348-.439.69-.92,1.01-1.421a6.842,6.842,0,0,0-1.581-8.917l-3-2.415q-6.885-5.579-13.782-11.151a7.33,7.33,0,0,0-5.557-1.562l-.18.026a7.117,7.117,0,0,0-5.5,9.46,7.542,7.542,0,0,0,2.373,3.265c.673.552,1.351,1.108,2.037,1.655.441.348.875.7,1.312,1.06.511.418,3.323,3.079,3.655,4.935,1,3.514-1.094,7.413-2.35,8.992q-1.342,1.675-2.676,3.358l-.084.1a6.913,6.913,0,0,0-1.13,6.5,7.006,7.006,0,0,0,4.707,4.618,7.147,7.147,0,0,0,2.88.286,6.778,6.778,0,0,0,4.415-2.274c1.388-1.6,2.716-3.241,4-4.83" transform="translate(-604.389 -259.921)" fill="#fc6160"/>
        </g>
      </g>
    </g>
    <g id="Group_11240" data-name="Group 11240" transform="translate(437.935 264.673)">
      <path id="Path_13781" data-name="Path 13781" d="M452.442,287.028a29.26,29.26,0,0,1-6.886-.574c-4.92-1.148-7.543-3.771-7.625-15.906,0-4.672.246-6.558.246-8.363,0-2.623.246-4.263,2.788-4.837,1.886-.409,4.755.411,5,2.377a89.844,89.844,0,0,1,.574,10.494c.163,9.511,1.886,11.069,5.9,11.069Z" transform="translate(-437.93 -257.246)" fill="#fff"/>
      <path id="Path_13782" data-name="Path 13782" d="M445.969,284.245v-.655a2.486,2.486,0,0,1,2.46-2.542h2.623c-.327-5.492.328-10.658,5.74-12.872a3.472,3.472,0,0,1-1.475-4.346,7.074,7.074,0,0,1,4.017-4.509,14.517,14.517,0,0,1,10.412-1.066c6.641,1.886,11.314,5.9,13.2,12.544,1.557,5.576-.82,10.494-6.314,13.365-6.558,3.443-13.446,3.361-19.758,1.312a21.864,21.864,0,0,1-8.445,1.312A2.486,2.486,0,0,1,445.969,284.245Zm14.758-10.821c-2.377.573-4.672,3.771-4.344,6.066C459.169,281.048,463.6,276.948,460.727,273.424Zm13.119-3.116a6.728,6.728,0,0,0-6.068-6.066,7.941,7.941,0,0,0-8.363,3.935c6.068,1.557,9.675,5.657,8.528,11.069C471.8,277.441,474.255,273.751,473.846,270.308Z" transform="translate(-433.919 -257.005)" fill="#fff"/>
      <path id="Path_13783" data-name="Path 13783" d="M474.11,287.116c2.542-3.689,5.246-7.3,7.706-11.149a58.492,58.492,0,0,0,3.28-6.395c1.229-2.625,1.886-3.28,3.772-3.116,2.132.411,3.526,1.886,4.017,4.756a10.471,10.471,0,0,1-1.066,6.8,40.145,40.145,0,0,1-9.511,11.971c-2.132,1.8-4.509,2.787-7.215,1.557C472.961,290.642,472.633,289.248,474.11,287.116Z" transform="translate(-420.329 -252.661)" fill="#fff"/>
      <path id="Path_13784" data-name="Path 13784" d="M490.5,288.35c7.625-5.164,9.674-14.347,10.658-19.267.493-2.377,1.394-3.935,3.69-3.361,3.361.9,5.738,3.524,4.755,7.461l-.492,1.967a3.641,3.641,0,0,0,3.526,1.968v5.74a18.505,18.505,0,0,1-5.822-.82,19.174,19.174,0,0,1-7.461,9.018c-3.2,1.968-6.477,2.625-9.838.411C488.127,290.482,488.373,289.581,490.5,288.35Z" transform="translate(-412.621 -253.075)" fill="#fff"/>
      <path id="Path_13785" data-name="Path 13785" d="M509.655,283.714h-4.1a2.555,2.555,0,0,1-2.542-2.542v-.655a2.555,2.555,0,0,1,2.542-2.542h2.46c2.049-11.15,8.2-14.921,16.726-13.938,4.918.574,7.215,3.443,7.542,6.641a21.575,21.575,0,0,1-.737,7.625,17.575,17.575,0,0,1-3.2,5.821c-3.689,5.083-11.232,5.329-17.463.657Zm14.1-8.528c.411-2.95,0-6.23-1.886-6.23-2.214,0-4.1,2.952-4.509,6.312-.492,4.017.328,6.888,2.377,7.051C521.461,282.483,523.018,280.763,523.756,275.186Z" transform="translate(-405.454 -253.931)" fill="#fff"/>
    </g>
    <g id="Component_79_3" data-name="Component 79 3" transform="translate(437.919 312.274)">
      <g id="mrrha" style="isolation: isolate">
        <g id="Group_11241" data-name="Group 11241" style="isolation: isolate">
          <path id="Path_13786" data-name="Path 13786" d="M440.62,295.6a2.506,2.506,0,0,1,1.054.189,2.254,2.254,0,0,1,.784.676,5.373,5.373,0,0,1,2.809-.811,6.02,6.02,0,0,1,2.457.513,18.327,18.327,0,0,1,2.566,1.433,14.046,14.046,0,0,0,1.27.756,2.334,2.334,0,0,0,1,.324.775.775,0,0,0,.648-.27,10.522,10.522,0,0,1,2.863-2.242,6.538,6.538,0,0,1,3.026-.782,5.887,5.887,0,0,1,4.915,2.809q2,2.808,2.216,8.427v1.135q.108,3.566.108,4.591a21.178,21.178,0,0,1-.217,3.512q-.216,1.187-.755,1.458a3.611,3.611,0,0,1-1.62.324h-.432q-.974-.11-1.4-1.486a13.2,13.2,0,0,1-.433-3.809l.054-3.944q0-7.454-1.62-7.778a5.134,5.134,0,0,0-1.189-.108,2.739,2.739,0,0,0-2.349,1.052,5.754,5.754,0,0,0-1.027,2.566q-.243,1.513-.4,4.052a20.881,20.881,0,0,1-.784,5.4,2.517,2.517,0,0,1-2.62,1.836q-1.351,0-1.728-1.755a28.7,28.7,0,0,1-.432-5.214q-.11-3.24-.352-5a4.762,4.762,0,0,0-1.106-2.674,2.571,2.571,0,0,0-1.892-.757,3.635,3.635,0,0,0-1.917.541q-.893.54-.892,1.025-.054,6.647-.162,9.481a28.885,28.885,0,0,1-.459,4.539q-.353,1.7-1.108,1.971a4.571,4.571,0,0,1-.811.108,2.41,2.41,0,0,1-1.89-.865,3.847,3.847,0,0,1-.865-2.322l.27-12.587-.054-2.647a5.812,5.812,0,0,1,.514-2.728A2.038,2.038,0,0,1,440.62,295.6Z" transform="translate(-437.919 -285.818)" fill="#fff"/>
          <path id="Path_13787" data-name="Path 13787" d="M462.371,316.035v-.054q-.594-5.781-.865-9.1t-.27-5.7a13.968,13.968,0,0,1,.6-4.728,2.065,2.065,0,0,1,2-1.539q1.187,0,2.054,2.161a14.967,14.967,0,0,1,7.508-1.674,8.353,8.353,0,0,1,3.647.675,2.131,2.131,0,0,1,1.378,1.973q0,1.783-6.213,1.944-2.97,0-4.025,1.27a6.064,6.064,0,0,0-1.054,3.917q0,1.567.163,3.511l.162,2.7a11.862,11.862,0,0,1-.487,3.485,6.7,6.7,0,0,1-1.3,2.512,2.21,2.21,0,0,1-1.566.917Q462.856,318.3,462.371,316.035Z" transform="translate(-426.284 -286.052)" fill="#fff"/>
          <path id="Path_13788" data-name="Path 13788" d="M476.749,316.035v-.054q-.594-5.781-.863-9.1t-.27-5.7a13.976,13.976,0,0,1,.594-4.728,2.066,2.066,0,0,1,2-1.539q1.187,0,2.052,2.161a14.967,14.967,0,0,1,7.509-1.674,8.353,8.353,0,0,1,3.647.675,2.129,2.129,0,0,1,1.378,1.973q0,1.783-6.212,1.944-2.973,0-4.025,1.27a6.056,6.056,0,0,0-1.054,3.917q0,1.567.162,3.511l.162,2.7a11.914,11.914,0,0,1-.486,3.485,6.75,6.75,0,0,1-1.3,2.512,2.215,2.215,0,0,1-1.566.917Q477.236,318.3,476.749,316.035Z" transform="translate(-419.108 -286.052)" fill="#fff"/>
          <path id="Path_13789" data-name="Path 13789" d="M493.182,289.109q1.136.162,1.54,2.728a55.024,55.024,0,0,1,.406,7.861v2.917a15.973,15.973,0,0,1,4-2,12.992,12.992,0,0,1,4.106-.7,7.6,7.6,0,0,1,3.888.973A5.849,5.849,0,0,1,509.6,303.8q1.621,4,1.62,15.612a1.607,1.607,0,0,1-.836,1.324,3.259,3.259,0,0,1-1.865.567,2.127,2.127,0,0,1-1.431-.486,1.817,1.817,0,0,1-.567-1.459q.052-1.675-.054-3.512c-.073-1.223-.126-2.016-.162-2.376q-.162-2.595-.162-4.863a4.776,4.776,0,0,0-1.216-3.4,3.888,3.888,0,0,0-2.944-1.3,4.616,4.616,0,0,0-2.836,1.054,7.357,7.357,0,0,0-2.243,3.214,9.182,9.182,0,0,0-.757,3.727,14.14,14.14,0,0,0,.217,2.323c.071.577.108.955.108,1.135a11.81,11.81,0,0,1,.054,1.3q0,4-2.108,4a2.591,2.591,0,0,1-.809-.108,2.14,2.14,0,0,1-1.73-1.135,14.716,14.716,0,0,1-.7-4.052q-.272-3.132-.7-12.8-.162-4.591-.486-11.236a2.561,2.561,0,0,1,.809-1.674,2.317,2.317,0,0,1,1.622-.649A4.564,4.564,0,0,1,493.182,289.109Z" transform="translate(-411.933 -289.001)" fill="#fff"/>
          <path id="Path_13790" data-name="Path 13790" d="M529.857,314.972a2.612,2.612,0,0,1-.7,1.971,2.544,2.544,0,0,1-1.838.675,4.28,4.28,0,0,1-2-.54,5.492,5.492,0,0,1-1.784-1.512,10.958,10.958,0,0,1-6.751,2.485,9.015,9.015,0,0,1-3.052-.513,8.112,8.112,0,0,1-2.566-1.487q-2.649-2.215-2.647-6.807a18.294,18.294,0,0,1,1.3-6.644,13.762,13.762,0,0,1,4.376-6,9.549,9.549,0,0,1,5.888-2.268,6.179,6.179,0,0,1,5.159,2.728q2.026,2.727,2.025,8.238a31,31,0,0,1-.216,3.726v.811a3.454,3.454,0,0,0,.54,1.809,8.434,8.434,0,0,0,1.73,1.919A2.15,2.15,0,0,1,529.857,314.972Zm-16.288-11.182a11.114,11.114,0,0,0-1.162,4.7,4.739,4.739,0,0,0,1.4,3.7,5.121,5.121,0,0,0,3.566,1.268,6.84,6.84,0,0,0,1.782-.216,4.394,4.394,0,0,0,2.458-1.431,5.575,5.575,0,0,0,.784-3.376,31.927,31.927,0,0,0-.676-7.834q-.675-2.377-2.133-2.376-1.3,0-3.62,2A10.79,10.79,0,0,0,513.569,303.789Z" transform="translate(-402.69 -286.339)" fill="#fff"/>
        </g>
        <g id="Group_11242" data-name="Group 11242" style="isolation: isolate">
          <path id="Path_13791" data-name="Path 13791" d="M440.62,295.6a2.506,2.506,0,0,1,1.054.189,2.254,2.254,0,0,1,.784.676,5.373,5.373,0,0,1,2.809-.811,6.02,6.02,0,0,1,2.457.513,18.327,18.327,0,0,1,2.566,1.433,14.046,14.046,0,0,0,1.27.756,2.334,2.334,0,0,0,1,.324.775.775,0,0,0,.648-.27,10.522,10.522,0,0,1,2.863-2.242,6.538,6.538,0,0,1,3.026-.782,5.887,5.887,0,0,1,4.915,2.809q2,2.808,2.216,8.427v1.135q.108,3.566.108,4.591a21.178,21.178,0,0,1-.217,3.512q-.216,1.187-.755,1.458a3.611,3.611,0,0,1-1.62.324h-.432q-.974-.11-1.4-1.486a13.2,13.2,0,0,1-.433-3.809l.054-3.944q0-7.454-1.62-7.778a5.134,5.134,0,0,0-1.189-.108,2.739,2.739,0,0,0-2.349,1.052,5.754,5.754,0,0,0-1.027,2.566q-.243,1.513-.4,4.052a20.881,20.881,0,0,1-.784,5.4,2.517,2.517,0,0,1-2.62,1.836q-1.351,0-1.728-1.755a28.7,28.7,0,0,1-.432-5.214q-.11-3.24-.352-5a4.762,4.762,0,0,0-1.106-2.674,2.571,2.571,0,0,0-1.892-.757,3.635,3.635,0,0,0-1.917.541q-.893.54-.892,1.025-.054,6.647-.162,9.481a28.885,28.885,0,0,1-.459,4.539q-.353,1.7-1.108,1.971a4.571,4.571,0,0,1-.811.108,2.41,2.41,0,0,1-1.89-.865,3.847,3.847,0,0,1-.865-2.322l.27-12.587-.054-2.647a5.812,5.812,0,0,1,.514-2.728A2.038,2.038,0,0,1,440.62,295.6Z" transform="translate(-437.919 -285.818)" fill="#fff"/>
          <path id="Path_13792" data-name="Path 13792" d="M462.371,316.035v-.054q-.594-5.781-.865-9.1t-.27-5.7a13.968,13.968,0,0,1,.6-4.728,2.065,2.065,0,0,1,2-1.539q1.187,0,2.054,2.161a14.967,14.967,0,0,1,7.508-1.674,8.353,8.353,0,0,1,3.647.675,2.131,2.131,0,0,1,1.378,1.973q0,1.783-6.213,1.944-2.97,0-4.025,1.27a6.064,6.064,0,0,0-1.054,3.917q0,1.567.163,3.511l.162,2.7a11.862,11.862,0,0,1-.487,3.485,6.7,6.7,0,0,1-1.3,2.512,2.21,2.21,0,0,1-1.566.917Q462.856,318.3,462.371,316.035Z" transform="translate(-426.284 -286.052)" fill="#fff"/>
          <path id="Path_13793" data-name="Path 13793" d="M476.749,316.035v-.054q-.594-5.781-.863-9.1t-.27-5.7a13.976,13.976,0,0,1,.594-4.728,2.066,2.066,0,0,1,2-1.539q1.187,0,2.052,2.161a14.967,14.967,0,0,1,7.509-1.674,8.353,8.353,0,0,1,3.647.675,2.129,2.129,0,0,1,1.378,1.973q0,1.783-6.212,1.944-2.973,0-4.025,1.27a6.056,6.056,0,0,0-1.054,3.917q0,1.567.162,3.511l.162,2.7a11.914,11.914,0,0,1-.486,3.485,6.75,6.75,0,0,1-1.3,2.512,2.215,2.215,0,0,1-1.566.917Q477.236,318.3,476.749,316.035Z" transform="translate(-419.108 -286.052)" fill="#fff"/>
          <path id="Path_13794" data-name="Path 13794" d="M493.182,289.109q1.136.162,1.54,2.728a55.024,55.024,0,0,1,.406,7.861v2.917a15.973,15.973,0,0,1,4-2,12.992,12.992,0,0,1,4.106-.7,7.6,7.6,0,0,1,3.888.973A5.849,5.849,0,0,1,509.6,303.8q1.621,4,1.62,15.612a1.607,1.607,0,0,1-.836,1.324,3.259,3.259,0,0,1-1.865.567,2.127,2.127,0,0,1-1.431-.486,1.817,1.817,0,0,1-.567-1.459q.052-1.675-.054-3.512c-.073-1.223-.126-2.016-.162-2.376q-.162-2.595-.162-4.863a4.776,4.776,0,0,0-1.216-3.4,3.888,3.888,0,0,0-2.944-1.3,4.616,4.616,0,0,0-2.836,1.054,7.357,7.357,0,0,0-2.243,3.214,9.182,9.182,0,0,0-.757,3.727,14.14,14.14,0,0,0,.217,2.323c.071.577.108.955.108,1.135a11.81,11.81,0,0,1,.054,1.3q0,4-2.108,4a2.591,2.591,0,0,1-.809-.108,2.14,2.14,0,0,1-1.73-1.135,14.716,14.716,0,0,1-.7-4.052q-.272-3.132-.7-12.8-.162-4.591-.486-11.236a2.561,2.561,0,0,1,.809-1.674,2.317,2.317,0,0,1,1.622-.649A4.564,4.564,0,0,1,493.182,289.109Z" transform="translate(-411.933 -289.001)" fill="#fff"/>
          <path id="Path_13795" data-name="Path 13795" d="M529.857,314.972a2.612,2.612,0,0,1-.7,1.971,2.544,2.544,0,0,1-1.838.675,4.28,4.28,0,0,1-2-.54,5.492,5.492,0,0,1-1.784-1.512,10.958,10.958,0,0,1-6.751,2.485,9.015,9.015,0,0,1-3.052-.513,8.112,8.112,0,0,1-2.566-1.487q-2.649-2.215-2.647-6.807a18.294,18.294,0,0,1,1.3-6.644,13.762,13.762,0,0,1,4.376-6,9.549,9.549,0,0,1,5.888-2.268,6.179,6.179,0,0,1,5.159,2.728q2.026,2.727,2.025,8.238a31,31,0,0,1-.216,3.726v.811a3.454,3.454,0,0,0,.54,1.809,8.434,8.434,0,0,0,1.73,1.919A2.15,2.15,0,0,1,529.857,314.972Zm-16.288-11.182a11.114,11.114,0,0,0-1.162,4.7,4.739,4.739,0,0,0,1.4,3.7,5.121,5.121,0,0,0,3.566,1.268,6.84,6.84,0,0,0,1.782-.216,4.394,4.394,0,0,0,2.458-1.431,5.575,5.575,0,0,0,.784-3.376,31.927,31.927,0,0,0-.676-7.834q-.675-2.377-2.133-2.376-1.3,0-3.62,2A10.79,10.79,0,0,0,513.569,303.789Z" transform="translate(-402.69 -286.339)" fill="#fff"/>
        </g>
      </g>
    </g>
    <g id="Group_3973" data-name="Group 3973" transform="translate(519.013 242.361)">
      <path id="Path_10639" data-name="Path 10639" d="M505.285,242.751c-1.556-1.294-3.812.935-2.242,2.229,1.2.989,1.03,3.046.5,4.34a2.768,2.768,0,0,1-1.226,1.556c-.039.013-.066.039-.1.052a3.273,3.273,0,0,0-.054-.381c-.342-1.718-1.872-4.037-3.917-3.443-2.018.594-1.742,3.508-.964,5a4.1,4.1,0,0,0,1.465,1.569,1.124,1.124,0,0,1-.052.184,2.634,2.634,0,0,1-1.464,1.8c-1.49.145-2.177-.528-2.084-2.019.3-1.992-2.757-2.848-3.061-.844-.712,4.735,4.8,8.429,8.351,4.406a7.716,7.716,0,0,0,1.451-2.8,4.09,4.09,0,0,0,.8-.159C507.039,252.947,508.861,245.692,505.285,242.751Zm-5.831,8.31s-.052.184-.46-.265a.888.888,0,0,1-.117-.132c-.95-1.108-.093-2.018.289-1.569a1.9,1.9,0,0,1,.316.541,1.966,1.966,0,0,1-.028,1.426Z" transform="translate(-492.018 -242.361)" fill="#f06b5e"/>
    </g>
  </g>
</svg>
